<svg width="200" height="61" viewBox="0 0 200 61" fill="none" xmlns="http://www.w3.org/2000/svg">
<g clip-path="url(#clip0)">
<path fill-rule="evenodd" clip-rule="evenodd" d="M124.076 47.1066C112.454 55.6683 95.6079 60.2362 81.104 60.2362C60.767 60.2362 42.4586 52.7187 28.6075 40.2155C27.5193 39.2323 28.4944 37.8924 29.8003 38.6581C44.7482 47.3502 63.2308 52.5795 82.3228 52.5795C95.1988 52.5795 109.363 49.917 122.387 44.3919C124.355 43.5566 126 45.6797 124.076 47.1066" fill="#FF9900"/>
<path fill-rule="evenodd" clip-rule="evenodd" d="M128.908 41.5815C127.428 39.6848 119.088 40.6854 115.344 41.1291C114.204 41.2683 114.03 40.2764 115.057 39.5629C121.699 34.8906 132.599 36.2392 133.87 37.8054C135.141 39.3802 133.539 50.2998 127.297 55.5116C126.34 56.3121 125.426 55.8858 125.852 54.8243C127.254 51.3265 130.397 43.487 128.908 41.5815" fill="#FF9900"/>
<path fill-rule="evenodd" clip-rule="evenodd" d="M115.605 6.57792V2.03606C115.605 1.34869 116.128 0.887543 116.755 0.887543H137.1C137.753 0.887543 138.275 1.35739 138.275 2.03606V5.92535C138.267 6.57792 137.718 7.4306 136.743 8.77924L126.2 23.8231C130.118 23.7274 134.253 24.3103 137.805 26.3115C138.606 26.764 138.824 27.4252 138.885 28.0778V32.9242C138.885 33.5854 138.154 34.3598 137.387 33.9596C131.128 30.6793 122.814 30.3226 115.893 33.9944C115.188 34.3772 114.448 33.6115 114.448 32.9503V28.3475C114.448 27.6079 114.456 26.3463 115.196 25.2239L127.411 7.71773H116.781C116.128 7.71773 115.605 7.25659 115.605 6.57792" fill="black"/>
<path fill-rule="evenodd" clip-rule="evenodd" d="M41.3876 34.9167H35.1977C34.6057 34.8732 34.1356 34.4294 34.092 33.8638V2.11435C34.092 1.47919 34.6231 0.974535 35.2847 0.974535H41.0567C41.6574 1.00062 42.1363 1.46178 42.1798 2.03604V6.18636H42.293C43.7991 2.17525 46.6285 0.304565 50.4417 0.304565C54.3158 0.304565 56.736 2.17525 58.4772 6.18636C59.9746 2.17525 63.3786 0.304565 67.0264 0.304565C69.6207 0.304565 72.4588 1.37477 74.1913 3.77622C76.1501 6.44738 75.7496 10.328 75.7496 13.73L75.7409 33.7681C75.7409 34.4033 75.2099 34.9167 74.5482 34.9167H68.3671C67.7489 34.8732 67.2527 34.3772 67.2527 33.7681V16.9406C67.2527 15.6007 67.3746 12.2596 67.0786 10.9892C66.6172 8.85753 65.2329 8.25717 63.4395 8.25717C61.9421 8.25717 60.3751 9.25777 59.7395 10.8587C59.104 12.4597 59.165 15.1396 59.165 16.9406V33.7681C59.165 34.4033 58.6339 34.9167 57.9722 34.9167H51.7911C51.1643 34.8732 50.6767 34.3772 50.6767 33.7681L50.668 16.9406C50.668 13.3994 51.2513 8.18756 46.8549 8.18756C42.4062 8.18756 42.5803 13.2689 42.5803 16.9406V33.7681C42.5803 34.4033 42.0492 34.9167 41.3876 34.9167" fill="black"/>
<path fill-rule="evenodd" clip-rule="evenodd" d="M155.791 0.304565C164.976 0.304565 169.947 8.18756 169.947 18.211C169.947 27.8951 164.454 35.5779 155.791 35.5779C146.772 35.5779 141.862 27.6949 141.862 17.8716C141.862 7.98744 146.833 0.304565 155.791 0.304565V0.304565ZM155.844 6.78672C151.282 6.78672 150.995 12.9991 150.995 16.871C150.995 20.7516 150.934 29.0349 155.791 29.0349C160.588 29.0349 160.815 22.3526 160.815 18.2806C160.815 15.6007 160.702 12.3988 159.892 9.85813C159.195 7.64811 157.811 6.78672 155.844 6.78672" fill="black"/>
<path fill-rule="evenodd" clip-rule="evenodd" d="M181.857 34.9167H175.693C175.075 34.8732 174.579 34.3772 174.579 33.7681L174.57 2.00994C174.622 1.42698 175.136 0.974535 175.763 0.974535H181.5C182.04 1.00062 182.484 1.36607 182.606 1.86202V6.71711H182.719C184.451 2.37538 186.88 0.304565 191.155 0.304565C193.932 0.304565 196.639 1.30517 198.381 4.04594C200 6.5866 200 10.8587 200 13.9301V33.9161C199.93 34.4729 199.417 34.9167 198.807 34.9167H192.6C192.034 34.8732 191.564 34.4555 191.503 33.9161V16.6709C191.503 13.1993 191.903 8.11795 187.629 8.11795C186.123 8.11795 184.739 9.12726 184.051 10.6586C183.18 12.5989 183.067 14.5305 183.067 16.6709V33.7681C183.058 34.4033 182.519 34.9167 181.857 34.9167" fill="black"/>
<path fill-rule="evenodd" clip-rule="evenodd" d="M99.3863 19.751C99.3863 22.1612 99.4472 24.1711 98.2284 26.3115C97.2446 28.0517 95.6776 29.1219 93.9451 29.1219C91.5684 29.1219 90.1755 27.3121 90.1755 24.6409C90.1755 19.3682 94.9027 18.4111 99.3863 18.4111V19.751V19.751ZM105.628 34.8296C105.219 35.1951 104.627 35.2212 104.166 34.9776C102.111 33.2722 101.737 32.4804 100.614 30.8533C97.2185 34.3163 94.807 35.3517 90.4105 35.3517C85.1957 35.3517 81.1475 32.1411 81.1475 25.7111C81.1475 20.6907 83.8637 17.2713 87.7465 15.6007C91.107 14.1215 95.7994 13.8605 99.3863 13.4516V12.6511C99.3863 11.1807 99.4994 9.44048 98.6289 8.17016C97.8802 7.03034 96.435 6.56049 95.1552 6.56049C92.7959 6.56049 90.6978 7.76991 90.1842 10.2758C90.0797 10.8326 89.6705 11.3808 89.1046 11.4069L83.1063 10.763C82.6013 10.6499 82.0355 10.241 82.1835 9.46659C83.559 2.19266 90.1406 3.05176e-05 96.0258 3.05176e-05C99.038 3.05176e-05 102.973 0.800513 105.35 3.08014C108.362 5.89052 108.075 9.6406 108.075 13.7213V23.3619C108.075 26.2593 109.276 27.5296 110.408 29.0958C110.8 29.6526 110.887 30.3226 110.382 30.7402C109.119 31.793 106.873 33.7507 105.637 34.847L105.628 34.8296" fill="black"/>
<path fill-rule="evenodd" clip-rule="evenodd" d="M18.2388 19.7512C18.2388 22.1613 18.2997 24.1713 17.0809 26.3117C16.0972 28.0518 14.5388 29.1221 12.7976 29.1221C10.4209 29.1221 9.03669 27.3123 9.03669 24.6411C9.03669 19.3684 13.764 18.4113 18.2388 18.4113V19.7512V19.7512ZM24.4809 34.8298C24.0717 35.1953 23.4797 35.2214 23.0183 34.9777C20.9637 33.2724 20.5981 32.4806 19.4663 30.8535C16.071 34.3165 13.6682 35.3519 9.26304 35.3519C4.05693 35.3519 0 32.1413 0 25.7113C0 20.6909 2.72494 17.2715 6.59905 15.6009C9.95951 14.1217 14.652 13.8607 18.2388 13.4518V12.6513C18.2388 11.1808 18.352 9.44066 17.4901 8.17034C16.7327 7.03052 15.2875 6.56068 14.0165 6.56068C11.6572 6.56068 9.55034 7.7701 9.03669 10.2759C8.93222 10.8328 8.52305 11.381 7.96587 11.4071L1.95882 10.7632C1.45388 10.6501 0.896703 10.2411 1.036 9.46677C2.42023 2.19284 8.99316 0.000213623 14.8783 0.000213623C17.8906 0.000213623 21.8256 0.800696 24.2023 3.08032C27.2146 5.89071 26.9273 9.64079 26.9273 13.7215V23.3621C26.9273 26.2595 28.1287 27.5298 29.2604 29.096C29.6609 29.6528 29.748 30.3228 29.243 30.7404C27.9807 31.7932 25.7346 33.7509 24.4983 34.8472L24.4809 34.8298" fill="black"/>
</g>
<defs>
<clipPath id="clip0">
<rect width="200" height="60.2362" fill="white"/>
</clipPath>
</defs>
</svg>
