<svg width="200" height="55" viewBox="0 0 200 55" fill="none" xmlns="http://www.w3.org/2000/svg">
<g clip-path="url(#clip0)">
<path fill-rule="evenodd" clip-rule="evenodd" d="M29.291 23.0757C27.7199 23.0757 26.4796 24.4287 26.4796 26.1131C26.4796 27.7975 27.7475 29.1506 29.291 29.1506C30.8622 29.1506 32.1025 27.7975 32.1025 26.1131C32.1025 24.4287 30.8346 23.0757 29.291 23.0757ZM19.2304 23.0757C17.6593 23.0757 16.4189 24.4287 16.4189 26.1131C16.4189 27.7975 17.6869 29.1506 19.2304 29.1506C20.8015 29.1506 22.0419 27.7975 22.0419 26.1131C22.0694 24.4287 20.8015 23.0757 19.2304 23.0757Z" fill="#7289DA"/>
<path fill-rule="evenodd" clip-rule="evenodd" d="M42.687 0.101746H5.75206C2.63739 0.101746 0.101562 2.64216 0.101562 5.76245V42.7641C0.101562 45.8844 2.63739 48.4248 5.75206 48.4248H37.009L35.5481 43.3716L39.0762 46.6299L42.4114 49.695L48.3651 54.8587V5.76245C48.3375 2.64216 45.8017 0.101746 42.687 0.101746ZM30.2284 33.6517C33.8392 32.6301 35.2173 30.3934 35.2173 30.3934C34.0872 31.1389 33.0123 31.6636 32.0475 32.0226C30.6694 32.6024 29.3463 32.9614 28.0508 33.2099C25.4048 33.707 22.9792 33.5689 20.9119 33.1823C19.3408 32.8786 17.9902 32.4644 16.8601 31.995C16.2261 31.7464 15.5371 31.4427 14.848 31.0561C14.7653 31.0009 14.6826 30.9733 14.5999 30.918C14.5448 30.8904 14.5172 30.8628 14.4897 30.8628C13.9935 30.5867 13.7179 30.3934 13.7179 30.3934C13.7179 30.3934 15.0409 32.5748 18.5415 33.6241C17.7146 34.6734 16.6947 35.8884 16.6947 35.8884C10.6032 35.6951 8.28789 31.7188 8.28789 31.7188C8.28789 22.9102 12.257 15.7584 12.257 15.7584C16.2261 12.8038 19.9748 12.8866 19.9748 12.8866L20.2504 13.218C15.289 14.6263 13.0288 16.8077 13.0288 16.8077C13.0288 16.8077 13.6352 16.4764 14.655 16.0345C17.6043 14.7367 19.9472 14.4054 20.9119 14.2949C21.0773 14.2673 21.2151 14.2397 21.3805 14.2397C23.0619 14.0188 24.9637 13.9636 26.9483 14.1845C29.5668 14.4882 32.3783 15.2614 35.2449 16.8077C35.2449 16.8077 33.0674 14.7367 28.3816 13.3285L28.7675 12.8866C28.7675 12.8866 32.5437 12.8038 36.4852 15.7584C36.4852 15.7584 40.4544 22.9102 40.4544 31.7188C40.4544 31.6912 38.1391 35.6675 32.0475 35.8608C32.0475 35.8608 31.0553 34.6734 30.2284 33.6517ZM73.6683 11.9202H64.5172V22.2199L70.6087 27.7149V17.7189H73.8612C75.9285 17.7189 76.9483 18.713 76.9483 20.3146V27.9634C76.9483 29.565 75.9836 30.6419 73.8612 30.6419H64.4897V36.4683H73.6407C78.547 36.4959 83.1501 34.0383 83.1501 28.4052V20.1765C83.1776 14.433 78.5745 11.9202 73.6683 11.9202ZM121.629 28.4052V19.9556C121.629 16.9182 127.086 16.2278 128.74 19.2653L133.784 17.2219C131.799 12.859 128.189 11.5888 125.184 11.5888C120.278 11.5888 115.427 14.433 115.427 19.9556V28.4052C115.427 33.9831 120.278 36.772 125.074 36.772C128.161 36.772 131.855 35.2533 133.894 31.277L128.492 28.7918C127.169 32.1882 121.629 31.3599 121.629 28.4052ZM104.953 21.1154C103.051 20.7012 101.783 20.0108 101.7 18.8235C101.81 15.9793 106.193 15.8689 108.756 18.6026L112.808 15.4823C110.272 12.3896 107.406 11.5612 104.457 11.5612C99.9637 11.5612 95.6087 14.1016 95.6087 18.9063C95.6087 23.5729 99.192 26.0857 103.134 26.6932C105.146 26.9694 107.378 27.7701 107.323 29.1508C107.158 31.7741 101.755 31.636 99.3022 28.6538L95.3882 32.3263C97.676 35.2809 100.791 36.772 103.712 36.772C108.205 36.772 113.194 34.1764 113.387 29.4269C113.663 23.4349 109.308 21.9161 104.953 21.1154ZM86.4852 36.4407H92.6594V11.9202H86.4852V36.4407ZM190.592 11.9202H181.441V22.2199L187.533 27.7149V17.7189H190.785C192.852 17.7189 193.872 18.713 193.872 20.3146V27.9634C193.872 29.565 192.908 30.6419 190.785 30.6419H181.414V36.4683H190.592C195.498 36.4959 200.102 34.0383 200.102 28.4052V20.1765C200.102 14.433 195.498 11.9202 190.592 11.9202ZM145.691 11.5888C140.62 11.5888 135.576 14.3501 135.576 20.0108V28.3776C135.576 33.9831 140.647 36.7997 145.747 36.7997C150.818 36.7997 155.862 33.9831 155.862 28.3776V20.0108C155.862 14.3778 150.763 11.5888 145.691 11.5888ZM149.661 28.3776C149.661 30.1449 147.676 31.0561 145.719 31.0561C143.734 31.0561 141.75 30.2001 141.75 28.3776V20.0108C141.75 18.216 143.679 17.2495 145.609 17.2495C147.621 17.2495 149.661 18.1055 149.661 20.0108V28.3776ZM178.023 20.0108C177.885 14.2673 173.971 11.9478 168.927 11.9478H159.142V36.4683H165.399V28.6814H166.502L172.18 36.4683H179.898L173.227 28.0463C176.177 27.1074 178.023 24.5394 178.023 20.0108ZM169.038 23.3244H165.399V17.7189H169.038C172.924 17.7189 172.924 23.3244 169.038 23.3244Z" fill="#7289DA"/>
</g>
<defs>
<clipPath id="clip0">
<rect width="200" height="55" fill="white"/>
</clipPath>
</defs>
</svg>
