<svg width="15" height="16" viewBox="0 0 15 16" fill="none" xmlns="http://www.w3.org/2000/svg">
<g clip-path="url(#clip0)">
<path d="M7.07285 4.40623C5.06554 4.40623 3.44644 6.00935 3.44644 7.99685C3.44644 9.98435 5.06554 11.5875 7.07285 11.5875C9.08016 11.5875 10.6993 9.98435 10.6993 7.99685C10.6993 6.00935 9.08016 4.40623 7.07285 4.40623ZM7.07285 10.3312C5.77567 10.3312 4.71521 9.28435 4.71521 7.99685C4.71521 6.70935 5.77252 5.66248 7.07285 5.66248C8.37318 5.66248 9.43049 6.70935 9.43049 7.99685C9.43049 9.28435 8.37002 10.3312 7.07285 10.3312V10.3312ZM11.6934 4.25935C11.6934 4.72498 11.3147 5.09685 10.8476 5.09685C10.3773 5.09685 10.0018 4.72185 10.0018 4.25935C10.0018 3.79685 10.3805 3.42185 10.8476 3.42185C11.3147 3.42185 11.6934 3.79685 11.6934 4.25935ZM14.0953 5.10935C14.0416 3.98748 13.7828 2.99373 12.9527 2.17498C12.1258 1.35623 11.1222 1.09998 9.98913 1.04373C8.82135 0.978101 5.32119 0.978101 4.15341 1.04373C3.02351 1.09685 2.01986 1.3531 1.18979 2.17185C0.359726 2.9906 0.104079 3.98435 0.0472679 5.10623C-0.0190112 6.26248 -0.0190112 9.7281 0.0472679 10.8843C0.100922 12.0062 0.359726 13 1.18979 13.8187C2.01986 14.6375 3.02036 14.8937 4.15341 14.95C5.32119 15.0156 8.82135 15.0156 9.98913 14.95C11.1222 14.8968 12.1258 14.6406 12.9527 13.8187C13.7797 13 14.0385 12.0062 14.0953 10.8843C14.1616 9.7281 14.1616 6.2656 14.0953 5.10935V5.10935ZM12.5866 12.125C12.3405 12.7375 11.8639 13.2093 11.2421 13.4562C10.3111 13.8218 8.10175 13.7375 7.07285 13.7375C6.04394 13.7375 3.83149 13.8187 2.90358 13.4562C2.28498 13.2125 1.8084 12.7406 1.55906 12.125C1.18979 11.2031 1.27501 9.0156 1.27501 7.99685C1.27501 6.9781 1.19295 4.78748 1.55906 3.86873C1.80524 3.25623 2.28182 2.78435 2.90358 2.53748C3.83464 2.17185 6.04394 2.25623 7.07285 2.25623C8.10175 2.25623 10.3142 2.17498 11.2421 2.53748C11.8607 2.78123 12.3373 3.2531 12.5866 3.86873C12.9559 4.7906 12.8707 6.9781 12.8707 7.99685C12.8707 9.0156 12.9559 11.2062 12.5866 12.125Z" fill="#F53838"/>
</g>
<defs>
<clipPath id="clip0">
<rect width="14.1395" height="16" fill="white"/>
</clipPath>
</defs>
</svg>
