<svg width="200" height="55" viewBox="0 0 200 55" fill="none" xmlns="http://www.w3.org/2000/svg">
<g clip-path="url(#clip0)">
<path d="M170.728 50.6129C173.505 50.8814 176.31 51.1768 179.087 51.4722L185.208 36.3801L191.033 52.8418C194.026 53.2178 197.019 53.5937 199.985 54.0234L189.765 25.1281L199.985 -0.00756836H191.329L191.248 0.126703L185.72 13.715L180.867 0.0192794H172.319L181.136 24.967L170.728 50.6129Z" fill="#DDE0E4"/>
<path d="M164.256 50.0221V-0.00756836H155.708V49.297C158.567 49.5387 161.425 49.7536 164.256 50.0221Z" fill="#DDE0E4"/>
<path d="M100.08 47.2024C102.399 47.2024 104.691 47.2292 106.983 47.2292V28.8609H117.257V21.0462H106.983V7.83391H118.794V-0.00756836H98.4082V47.2024C98.9745 47.2292 99.5138 47.2024 100.08 47.2024Z" fill="#DDE0E4"/>
<path d="M73.5465 47.6858C76.4048 47.5783 79.2361 47.4978 82.0944 47.4172V7.83391H90.076V-0.00756836H65.5649V7.83391H73.5465V47.6858Z" fill="#DDE0E4"/>
<path d="M8.21098 52.976V23.1677L18.3228 51.7676C21.4238 51.4185 24.5517 51.0962 27.6796 50.774V-0.00762939H19.4823V30.848L8.56153 -0.00762939H8.21098H0.0136719V54.0233H0.0676049C2.76409 53.6742 5.48753 53.2983 8.21098 52.976Z" fill="#DDE0E4"/>
<path d="M57.3137 7.83391V-0.00756836H36.9014V42.1001V49.9415C43.6695 49.3507 50.4647 48.8674 57.2868 48.4645V46.2088V40.6231C53.3499 40.8379 49.413 41.1065 45.4762 41.4019V28.8877H55.7498V21.0462H45.4762V7.83391H57.3137Z" fill="#DDE0E4"/>
<path d="M135.755 40.2471V-0.00756836H127.18V39.8711V47.7126C134.002 47.9543 140.797 48.3034 147.592 48.7599V46.2356V40.9453C143.628 40.6499 139.691 40.4351 135.755 40.2471Z" fill="#DDE0E4"/>
</g>
<defs>
<clipPath id="clip0">
<rect width="200" height="54.0351" fill="white"/>
</clipPath>
</defs>
</svg>
