<svg width="200" height="55" viewBox="0 0 200 55" fill="none" xmlns="http://www.w3.org/2000/svg">
<g clip-path="url(#clip0)">
<path d="M170.728 50.6129C173.505 50.8814 176.31 51.1768 179.087 51.4722L185.208 36.3801L191.032 52.8418C194.025 53.2178 197.019 53.5937 199.985 54.0234L189.765 25.1281L199.985 -0.00756836H191.329L191.248 0.126703L185.72 13.715L180.867 0.0192794H172.319L181.136 24.967L170.728 50.6129Z" fill="#B81D24"/>
<path d="M164.256 50.0221V-0.00756836H155.708V49.297C158.567 49.5387 161.425 49.7536 164.256 50.0221Z" fill="#B81D24"/>
<path d="M100.08 47.2024C102.399 47.2024 104.691 47.2292 106.983 47.2292V28.8609H117.257V21.0462H106.983V7.83391H118.794V-0.00756836H98.4082V47.2024C98.9745 47.2292 99.5138 47.2024 100.08 47.2024Z" fill="#B81D24"/>
<path d="M73.5463 47.6858C76.4046 47.5783 79.2359 47.4978 82.0942 47.4172V7.83391H90.0758V-0.00756836H65.5647V7.83391H73.5463V47.6858Z" fill="#B81D24"/>
<path d="M8.21074 52.976V23.1677L18.3226 51.7676C21.4235 51.4185 24.5514 51.0962 27.6794 50.774V-0.00762939H19.482V30.848L8.56129 -0.00762939H8.21074H0.0134277V54.0233H0.0673607C2.76385 53.6742 5.48729 53.2983 8.21074 52.976Z" fill="#B81D24"/>
<path d="M57.3135 7.83391V-0.00756836H36.9011V42.1001V49.9415C43.6693 49.3507 50.4644 48.8674 57.2865 48.4645V46.2088V40.6231C53.3497 40.8379 49.4128 41.1065 45.4759 41.4019V28.8877H55.7495V21.0462H45.4759V7.83391H57.3135Z" fill="#B81D24"/>
<path d="M135.754 40.2471V-0.00756836H127.179V39.8711V47.7126C134.002 47.9543 140.797 48.3034 147.592 48.7599V46.2356V40.9453C143.628 40.6499 139.691 40.4351 135.754 40.2471Z" fill="#B81D24"/>
</g>
<defs>
<clipPath id="clip0">
<rect width="200" height="54.0351" fill="white"/>
</clipPath>
</defs>
</svg>
