<svg width="200" height="70" viewBox="0 0 200 70" fill="none" xmlns="http://www.w3.org/2000/svg">
<g clip-path="url(#clip0)">
<path d="M174.353 25.3616C174.353 23.0133 176.235 21.1347 178.588 21.1347C180.941 21.1347 182.824 23.0133 182.824 25.3616C182.824 27.7099 180.941 29.5886 178.588 29.5886C176.235 29.5886 174.353 27.7099 174.353 25.3616Z" fill="#DDE0E4"/>
<path d="M117.176 43.6783H102.353C103.059 47.4356 105.647 50.2536 108.941 50.2536C111.765 50.2536 113.412 48.8446 114.353 47.9053C115.294 47.2008 116.47 46.966 117.647 47.6705C118.823 48.6098 119.059 50.2536 118.118 51.4277C116 53.776 113.176 55.185 109.176 55.185C102.823 55.185 97.647 49.3143 97.647 42.2694C97.647 35.2245 102.823 29.3537 109.176 29.3537C114.588 29.3537 119.059 33.5807 120.47 38.9818C120.47 39.4514 120.706 39.9211 120.706 40.8604C120.47 42.0345 119.294 43.6783 117.176 43.6783ZM102.353 39.4514H115.294C114.353 36.3986 111.765 34.0503 108.941 34.0503C105.882 34.0503 103.529 36.1638 102.353 39.4514Z" fill="#DDE0E4"/>
<path d="M97.4117 31.702C97.4117 30.5279 96.4706 29.5886 95.2941 29.3537C92 28.8841 88.7059 30.0582 86.5882 32.6414V32.4065C86.5882 30.9976 85.4117 30.0582 84.2353 30.0582C82.8235 30.0582 81.8823 31.2324 81.8823 32.4065V52.3671C81.8823 53.5412 82.8235 54.7154 84.2353 54.9502C85.647 54.9502 86.8235 54.0109 86.8235 52.6019V42.2694C86.8235 37.8076 90.3529 34.0503 95.0588 34.52H95.5294C96.4706 34.0503 97.4117 32.8762 97.4117 31.702Z" fill="#DDE0E4"/>
<path d="M181.177 34.2852C180.941 32.8762 179.765 31.9369 178.588 32.1717C177.412 32.1717 176.471 33.1111 176.471 34.2852V52.1323C176.706 53.5413 177.882 54.4806 179.059 54.2457C180.235 54.2457 181.177 53.3064 181.177 52.1323C181.177 51.8975 181.177 34.2852 181.177 34.2852Z" fill="#DDE0E4"/>
<path d="M144.941 51.8975C144.941 53.3064 143.764 54.2458 142.588 54.2458C141.411 54.2458 140.47 53.3064 140.235 52.3671C138.588 54.0109 136.47 54.9502 133.882 54.9502C127.529 54.9502 122.353 49.0795 122.353 42.0346C122.353 34.9897 127.529 29.119 133.882 29.119C136.47 29.119 138.353 29.8235 140.235 31.4673V20.6651C140.47 19.2561 141.647 18.3168 142.823 18.5516C144 18.5516 144.941 19.4909 144.941 20.6651V51.8975ZM140.47 42.0346C140.47 37.5728 137.411 33.8156 133.647 33.8156C129.882 33.8156 127.058 37.5728 127.058 42.0346C127.058 46.4964 130.117 50.0188 133.882 50.0188C137.411 50.2536 140.47 46.4964 140.47 42.0346Z" fill="#DDE0E4"/>
<path d="M170.353 51.8975C170.353 53.3064 169.176 54.2458 168 54.2458C166.823 54.2458 165.882 53.3064 165.647 52.3671C164 54.0109 161.882 54.9502 159.294 54.9502C152.941 54.9502 147.765 49.0795 147.765 42.0346C147.765 34.9897 152.941 29.119 159.294 29.119C161.882 29.119 163.765 29.8235 165.647 31.4673V20.6651C165.882 19.2561 167.059 18.3168 168.235 18.5516C169.412 18.5516 170.353 19.4909 170.353 20.6651V51.8975ZM165.882 42.0346C165.882 37.5728 162.823 33.8156 159.059 33.8156C155.294 33.8156 152.235 37.338 152.235 42.0346C152.235 46.4964 155.294 50.0188 159.059 50.0188C163.059 50.2536 165.882 46.4964 165.882 42.0346Z" fill="#DDE0E4"/>
<path d="M193.411 52.1322V34.0503H195.529C196.705 34.0503 197.647 33.111 197.647 31.9369C197.647 30.7627 196.705 29.5886 195.529 29.5886C195.529 29.5886 195.529 29.5886 195.294 29.5886H193.176V26.0661C193.176 24.892 192.235 23.7178 190.823 23.483C189.411 23.483 188.235 24.4223 188.235 25.8313V29.3537H186.117C184.941 29.3537 184 30.2931 184 31.4672C184 32.6414 184.941 33.8155 186.117 33.8155H188.235V51.8974C188.235 53.3064 189.411 54.2457 190.588 54.2457C192.47 54.4805 193.411 53.3064 193.411 52.1322Z" fill="#DDE0E4"/>
<path d="M0.00015902 35.929C-0.470429 17.1426 14.3531 1.64381 33.1766 1.17415C52.0002 0.704489 67.5296 15.4988 68.0002 34.2852C68.0002 34.9897 68.0002 35.4593 68.0002 36.1638C67.5296 54.9502 51.7649 69.7445 32.9413 69.2748C15.059 68.5703 0.470747 54.0109 0.00015902 35.929Z" fill="#DDE0E4"/>
<path d="M53.8824 40.3908C53.8824 40.8605 53.8824 41.3301 53.8824 41.7998C53.8824 49.5492 44.9413 55.6547 33.8824 55.6547C22.8236 55.6547 13.8824 49.5492 13.8824 41.7998C13.8824 41.3301 13.8824 40.8605 13.8824 40.3908C11.2942 39.2167 10.353 36.3987 11.2942 33.8156C12.0001 31.9369 13.8824 30.7628 15.7648 30.9976C17.1766 30.9976 18.353 31.4673 19.2942 32.4066C23.2942 29.8235 28.0001 28.1796 32.706 28.1796L35.2942 16.4382C35.2942 16.2033 35.5295 15.9685 35.5295 15.9685C35.7648 15.7337 36.0001 15.7337 36.2354 15.7337L44.4707 17.6123C45.4119 15.9685 47.5295 15.0292 49.1766 15.9685C50.8236 16.9078 51.7648 19.0213 50.8236 20.6651C49.8824 22.3089 47.7648 23.2482 46.1177 22.3089C44.9413 21.8392 44.2354 20.6651 44.2354 19.2561L36.9413 17.6123L34.5883 28.1796C39.7648 28.4145 44.4707 30.0583 47.7648 32.4066C49.6471 30.5279 52.9413 30.5279 54.8236 32.4066C55.7648 33.3459 56.2354 34.52 56.2354 35.929C56.9413 38.0425 55.5295 39.6863 53.8824 40.3908ZM26.353 42.9739C28.2354 42.9739 29.8824 41.3301 29.8824 39.4515C29.8824 37.5728 28.2354 35.929 26.353 35.929C24.4707 35.929 22.8236 37.5728 22.8236 39.4515C22.8236 41.3301 24.2354 42.9739 26.353 42.9739ZM42.5883 47.4357C42.1177 46.966 41.6471 46.966 41.4119 47.4357C40.0001 49.0795 36.706 49.5492 34.353 49.5492C32.0001 49.5492 28.706 49.0795 27.2942 47.4357C26.8236 46.966 26.353 46.966 26.1177 47.4357C25.6471 47.9054 25.6471 48.375 26.1177 48.6098C28.4707 50.9581 33.1766 51.193 34.5883 51.193C36.0001 51.193 40.4707 50.9581 43.0589 48.6098C42.8236 48.375 42.8236 47.9054 42.5883 47.4357ZM45.4119 39.4515C45.4119 37.5728 43.7648 35.929 41.8824 35.929C40.0001 35.929 38.353 37.5728 38.353 39.4515C38.353 41.3301 40.0001 42.9739 41.8824 42.9739C43.7648 42.9739 45.4119 41.3301 45.4119 39.4515Z" fill="white"/>
</g>
<defs>
<clipPath id="clip0">
<rect width="200" height="69.9793" fill="white"/>
</clipPath>
</defs>
</svg>
