<svg width="200" height="60" viewBox="0 0 200 60" fill="none" xmlns="http://www.w3.org/2000/svg">
<g clip-path="url(#clip0)">
<path d="M29.9925 0C13.4285 0 0 13.3861 0 29.8984C0 46.4125 13.4285 59.798 29.9925 59.798C46.5573 59.798 59.985 46.4125 59.985 29.8984C59.985 13.3872 46.558 0.00142703 29.9921 0.00142703L29.9925 0ZM43.7469 43.1221C43.2082 44.003 42.0571 44.2789 41.1764 43.7423C34.1334 39.4512 25.2685 38.4818 14.8284 40.8593C13.8224 41.0892 12.8196 40.4605 12.5904 39.4579C12.3601 38.455 12.9879 37.4554 13.9965 37.2269C25.4214 34.623 35.2215 35.7438 43.1269 40.5594C44.008 41.0985 44.2873 42.2446 43.7465 43.1229L43.7469 43.1221ZM47.4179 34.9822C46.7396 36.0794 45.3005 36.4235 44.2014 35.7498C36.1412 30.8107 23.8506 29.38 14.3149 32.2656C13.0782 32.638 11.772 31.9432 11.3967 30.7125C11.0242 29.4797 11.7215 28.1801 12.956 27.8052C23.8485 24.5105 37.3893 26.1064 46.6475 31.7779C47.747 32.4527 48.0944 33.8879 47.4175 34.9826L47.4179 34.9822ZM47.7331 26.5049C38.0652 20.7813 22.1182 20.2551 12.889 23.0474C11.407 23.4954 9.83977 22.6614 9.39065 21.184C8.94153 19.7059 9.77746 18.1446 11.2605 17.6955C21.855 14.4894 39.467 15.1088 50.5961 21.695C51.9291 22.4836 52.3664 24.1999 51.5763 25.527C50.7884 26.8558 49.0621 27.2939 47.7334 26.5049H47.7331ZM81.5997 27.6017C76.4212 26.3706 75.4993 25.5066 75.4993 23.6911C75.4993 21.9759 77.1192 20.8217 79.5281 20.8217C81.8633 20.8217 84.1787 21.6982 86.6062 23.5026C86.6797 23.5572 86.7717 23.579 86.8623 23.5647C86.9529 23.5512 87.0332 23.5015 87.0862 23.4269L89.6147 19.8737C89.7186 19.7274 89.6903 19.5256 89.5503 19.4139C86.6611 17.1028 83.4076 15.9792 79.6048 15.9792C74.0134 15.9792 70.1078 19.3243 70.1078 24.1103C70.1078 29.2426 73.4769 31.0599 79.299 32.4626C84.2543 33.6005 85.0906 34.5538 85.0906 36.2579C85.0906 38.1462 83.3994 39.3201 80.6778 39.3201C77.6551 39.3201 75.1896 38.3051 72.4314 35.9241C72.363 35.8651 72.2692 35.8384 72.1825 35.8434C72.0912 35.8509 72.0077 35.893 71.9497 35.9626L69.1146 39.3262C68.9957 39.4658 69.0108 39.6743 69.1483 39.795C72.3573 42.6509 76.3041 44.1594 80.5632 44.1594C86.5884 44.1594 90.4818 40.8775 90.4818 35.7981C90.4926 31.5101 87.9175 29.1359 81.6105 27.6063L81.5997 27.6017ZM104.113 22.5104C101.501 22.5104 99.3592 23.5358 97.5928 25.6369V23.2719C97.5928 23.0852 97.441 22.9331 97.254 22.9331H92.6171C92.4298 22.9331 92.2783 23.0852 92.2783 23.2719V49.5501C92.2783 49.7368 92.4298 49.8889 92.6171 49.8889H97.254C97.441 49.8889 97.5928 49.7369 97.5928 49.5501V41.2552C99.3596 43.2317 101.502 44.1975 104.113 44.1975C108.966 44.1975 113.878 40.4737 113.878 33.3552C113.885 26.235 108.971 22.5101 104.118 22.5101L104.113 22.5104ZM108.486 33.3552C108.486 36.9802 106.246 39.5097 103.039 39.5097C99.8682 39.5097 97.4765 36.8652 97.4765 33.3552C97.4765 29.8456 99.8682 27.2007 103.039 27.2007C106.194 27.2004 108.486 29.7881 108.486 33.3549L108.486 33.3552ZM126.469 22.5104C120.219 22.5104 115.323 27.3075 115.323 33.4327C115.323 39.4911 120.186 44.2379 126.392 44.2379C132.664 44.2379 137.575 39.4569 137.575 33.3552C137.575 27.2746 132.697 22.5111 126.468 22.5111L126.469 22.5104ZM126.469 39.5458C123.145 39.5458 120.639 36.8834 120.639 33.3534C120.639 29.8085 123.058 27.2361 126.392 27.2361C129.737 27.2361 132.26 29.8984 132.26 33.4309C132.26 36.9752 129.825 39.5458 126.469 39.5458H126.469ZM150.92 22.9332H145.817V17.7326C145.817 17.5463 145.666 17.3942 145.479 17.3942H140.842C140.655 17.3942 140.502 17.5463 140.502 17.7326V22.9332H138.273C138.086 22.9332 137.935 23.0852 137.935 23.272V27.2446C137.935 27.431 138.086 27.5835 138.273 27.5835H140.502V37.8627C140.502 42.0168 142.576 44.1229 146.667 44.1229C148.33 44.1229 149.71 43.7805 151.01 43.0454C151.116 42.9865 151.182 42.873 151.182 42.7523V38.9692C151.182 38.8524 151.121 38.7421 151.02 38.6811C150.92 38.6179 150.794 38.6147 150.69 38.6657C149.797 39.1138 148.934 39.3205 147.968 39.3205C146.481 39.3205 145.817 38.6471 145.817 37.138V27.5853H150.92C151.107 27.5853 151.258 27.4332 151.258 27.2465V23.2741C151.265 23.0874 151.114 22.9353 150.925 22.9353L150.92 22.9332ZM168.698 22.9535V22.3148C168.698 20.4357 169.421 19.5978 171.042 19.5978C172.008 19.5978 172.785 19.7891 173.655 20.0783C173.762 20.1119 173.873 20.0951 173.96 20.0312C174.05 19.9673 174.1 19.8648 174.1 19.7563V15.8611C174.1 15.7122 174.004 15.5804 173.86 15.5365C172.942 15.2641 171.766 14.9845 170.006 14.9845C165.724 14.9845 163.46 17.3888 163.46 21.9349V22.9131H161.232C161.045 22.9131 160.892 23.0652 160.892 23.2516V27.2446C160.892 27.431 161.045 27.5834 161.232 27.5834H163.46V43.4388C163.46 43.6255 163.611 43.7776 163.798 43.7776H168.435C168.622 43.7776 168.775 43.6255 168.775 43.4388V27.5845H173.104L179.736 43.436C178.983 45.1015 178.243 45.4329 177.232 45.4329C176.415 45.4329 175.555 45.1897 174.675 44.7099C174.593 44.6645 174.494 44.657 174.405 44.6845C174.317 44.7156 174.242 44.7813 174.205 44.8669L172.633 48.3041C172.558 48.4665 172.622 48.6572 172.779 48.7414C174.42 49.6272 175.901 50.0053 177.731 50.0053C181.155 50.0053 183.048 48.4155 184.716 44.1382L192.76 23.4162C192.801 23.3119 192.789 23.1941 192.725 23.1017C192.661 23.0099 192.558 22.9546 192.446 22.9546H187.618C187.474 22.9546 187.344 23.0463 187.297 23.1816L182.352 37.2622L176.936 23.1723C176.886 23.0413 176.76 22.9545 176.619 22.9545H168.697L168.698 22.9535ZM158.391 22.9332H153.754C153.566 22.9332 153.414 23.0852 153.414 23.272V43.4388C153.414 43.6255 153.566 43.7776 153.754 43.7776H158.391C158.577 43.7776 158.73 43.6255 158.73 43.4388V23.2734C158.73 23.2288 158.722 23.1847 158.705 23.1435C158.688 23.1023 158.663 23.0649 158.631 23.0334C158.599 23.002 158.562 22.977 158.52 22.96C158.479 22.9431 158.435 22.9344 158.39 22.9346L158.391 22.9332ZM156.098 13.7507C154.261 13.7507 152.771 15.2331 152.771 17.0643C152.771 18.8966 154.262 20.3807 156.098 20.3807C157.935 20.3807 159.424 18.8966 159.424 17.0643C159.424 15.2334 157.934 13.7507 156.1 13.7507H156.098ZM196.72 29.4172C194.885 29.4172 193.457 27.948 193.457 26.1639C193.457 24.3798 194.903 22.8939 196.737 22.8939C198.572 22.8939 200 24.3627 200 26.1453C200 27.9294 198.553 29.4172 196.719 29.4172H196.72ZM196.738 23.2173C195.066 23.2173 193.801 24.5419 193.801 26.1639C193.801 27.7852 195.057 29.0919 196.721 29.0919C198.392 29.0919 199.658 27.7684 199.658 26.1453C199.658 24.5241 198.401 23.2173 196.739 23.2173H196.738ZM197.461 26.4799L198.384 27.7681H197.606L196.775 26.5863H196.06V27.7681H195.409V24.3534H196.936C197.732 24.3534 198.256 24.7593 198.256 25.4427C198.259 26.0025 197.933 26.3446 197.464 26.4799L197.461 26.4799ZM196.91 24.9393H196.06V26.0193H196.91C197.334 26.0193 197.587 25.8126 197.587 25.4788C197.587 25.1275 197.332 24.9393 196.91 24.9393L196.91 24.9393Z" fill="#DDE0E4"/>
</g>
<defs>
<clipPath id="clip0">
<rect width="200" height="60" fill="white"/>
</clipPath>
</defs>
</svg>
