<svg width="20" height="16" viewBox="0 0 20 16" fill="none" xmlns="http://www.w3.org/2000/svg">
<g clip-path="url(#clip0)">
<path d="M19.7647 1.94839C19.0246 2.2735 18.2396 2.4869 17.4357 2.5815C18.273 2.08389 18.9159 1.29591 19.2186 0.357036C18.4227 0.825388 17.5518 1.15537 16.6437 1.33273C15.904 0.551333 14.8502 0.0629883 13.6839 0.0629883C11.4445 0.0629883 9.62881 1.86326 9.62881 4.08366C9.62881 4.39883 9.66471 4.70567 9.73381 5.00002C6.36377 4.83229 3.3759 3.2316 1.37589 0.798988C1.02692 1.39283 0.826952 2.08358 0.826952 2.82035C0.826952 4.21533 1.54288 5.44595 2.63087 6.16703C1.98693 6.14703 1.35716 5.97457 0.79414 5.66406C0.793908 5.6809 0.793908 5.69774 0.793908 5.71466C0.793908 7.66276 2.19164 9.28787 4.04659 9.65724C3.44947 9.81827 2.82313 9.84184 2.21542 9.72614C2.73139 11.3235 4.22895 12.486 6.0033 12.5185C4.61552 13.5968 2.86704 14.2397 0.967313 14.2397C0.63996 14.2397 0.317239 14.2206 0 14.1835C1.7945 15.3243 3.92592 15.99 6.21585 15.99C13.6745 15.99 17.753 9.86318 17.753 4.54995C17.753 4.37556 17.7492 4.20216 17.7413 4.02976C18.5352 3.46072 19.2203 2.7559 19.7647 1.94839Z" fill="#F53838"/>
</g>
<defs>
<clipPath id="clip0">
<rect width="19.7647" height="16" fill="white"/>
</clipPath>
</defs>
</svg>
